<svg id="Capa_1" data-name="Capa 1" xmlns="http://www.w3.org/2000/svg" viewBox="0 0 2678.32 1429.16"><defs><style>.cls-1{fill:#e94d29;}.cls-2{fill:#08090a;}.cls-3{fill:#1a4fff;}</style></defs><path class="cls-1" d="M547.83,570.83a70.34,70.34,0,0,1-25.69-33.15L322.76,0H192.07V10.85a48.82,48.82,0,0,1,48.85,48.69,50.24,50.24,0,0,1-3,16.84L69.61,534.76A74.1,74.1,0,0,1,0,583.37v10.85H145.69V583.37a47.76,47.76,0,0,1-14.39-2.23,46.79,46.79,0,0,1-13-6.54,37,37,0,0,1-4.62-56.3L311.38,320.61a33.73,33.73,0,0,1,55.46,12.07l64.92,174.08c13.85,37.15-13.62,76.61-53.23,76.61v10.85h198l8.26-2.17-1.25-5C568.94,587,559.3,578.83,547.83,570.83ZM321.69,295,130,486.68c-11.69,11.69-31-.69-25.31-16.15l155.54-424,72.92,195.69A49.9,49.9,0,0,1,321.69,295Z"/><path class="cls-2" d="M817.89,51.44q-12.1,0-27.87-4.21Q724.82,163.45,629.65,321.71q-77.83,129.36-91.24,156.44a124.76,124.76,0,0,0-13.4,56q0,26.29,14.47,43.38c9.65,11.39,22,16.69,37.06,16.69,31.58,0,80.6-45.41,146.93-137l22.65-31.06q5.25-5.26,5.26-8.43c0-1.75-.71-2.8-2.11-3.16-2.46,0-4.57,1.76-6.32,5.26-78.63,111.3-132.57,166.51-162.06,166.51-13.34,0-20.13-7.45-20.13-23.22q0-21,36.55-85.71T854.7,45.13a104.21,104.21,0,0,1-36.81,6.31Z"/><path class="cls-2" d="M1015.06,415.05q-4.21,0-10.53,8.4Q884,585.69,800.83,585.68q-48.95,0-49-45.22,0-36.29,35.76-90.44,115.67-23.14,165.11-49.69t49.43-64.42q0-16.29-13.41-27.6T956.43,297q-43.65,0-113,37.86-132,72-132,166.69,0,40,25,66.52t61.84,26.55q77.88,0,186.83-134.42l22.63-28.34q9.46-12.08,9.47-13.66,0-2.62-2.1-3.15Zm-94.91-27.34q-52.59,35.49-128.31,55Q835.49,381.13,881,342.48t73.36-38.64q18.39,0,18.4,16.82Q972.73,352.22,920.15,387.71Z"/><path class="cls-2" d="M1178.31,415.05q-4.74,0-11,10.51-49.89,66.15-92.7,104T964,605.14l48.38-88.34q85.19-147.22,127.25-215.59-24.2,3.68-38.91,3.68-10,0-24.71-3.68-60.48,104.64-98.86,171.42l-92,163.53-7.36,3.68q-99.39,42.6-147.23,69.94-31,17.87-75.72,52.58Q573.34,826,573.34,886.46q0,49.41,53.64,49.42,59.94,0,144.07-68.88Q850.46,801.8,932,662.45l26.82-46.8q103.7-58.29,163.73-125.51,58.42-65.1,58.43-73a2.62,2.62,0,0,0-2.63-2.1ZM874.64,656.67Q780,814.94,734.25,866.47,680.09,928,624.87,928q-18.93,0-31.55-11.31a36.25,36.25,0,0,1-12.62-28.13q0-62.58,109.9-138.29Q731.1,722.39,881,646.15Z"/><path class="cls-2" d="M1547.69,414.52c-1.76,0-3.69,1.76-5.8,5.26q-47.91,70.58-94.25,118.76t-67.41,48.19q-20.52,0-20.53-24.71,0-25.75,48.38-106.75l93.07-154.06q-22.62,3.68-36.81,3.68a124.68,124.68,0,0,1-27.87-3.68l-26.81,51q4.2-14.71,4.2-23.66,0-31.55-32.6-31.55-38.38,0-101,34.7-142.5,77.83-142.5,178.79,0,36.28,18.93,60.2t46.8,23.93q26.28,0,54.16-25.77t80.45-99.38q-16.83,33.13-16.82,61.52,0,27.36,15.26,45.49t39.49,18.14q35.79,0,97.92-74.78,76.85-91.11,76.85-102.16,0-3.17-3.15-3.16Zm-214.81,51.8q-89.4,120.42-125.67,120.41-30.49,0-30.5-34.18,0-58.36,78.61-153t127-94.65q23.67,0,23.66,25.76,0,36.81-73.09,135.67Z"/><path class="cls-3" d="M1730,425.29q-1.83-46.49-28-73.3-28.17-28.83-73.85-28.85a102.12,102.12,0,0,0-44.07,9.46,89.38,89.38,0,0,0-33,26.08V326.84h-64.62V594.61h64.62V441.3q0-30.48,15.46-46.85t42.22-16.38q26.33,0,41.54,16.38t15.24,46.85V594.61h64.6V432.53C1730.12,430.07,1730.08,427.66,1730,425.29Z"/><path class="cls-2" d="M2412.71,414.52q-2.65,0-13.17,11.61-8.4,11.79-16.58,21.54c0,3.2.14,6.37.37,9.53.32-.33.62-.68.93-1q31.6-34.29,31.6-38.52C2415.86,415.58,2414.8,414.52,2412.71,414.52Z"/><path class="cls-2" d="M2310,494.18q-33.19,0-33.19-44.17,0-15.76,7.36-40l6.3-5.26q23.14-14.19,34.71-21.55,73.08-46.82,73.09-72,0-14.2-16.3-14.2-23.67,0-53.37,31.55t-49.68,78.35q-24.75,20-52.06,51.52,43.11-66.76,43.11-107.26,0-54.15-42.13-54.16c-19.32,0-56.48,35.29-110.55,107.31,0,0-142.65,182.42-174.59,182.42q-21.6,0-21.59-23.67,0-23.12,52.05-112,51.52-87.29,248.72-400.68-28.39,2.11-32.6,2.1a117.64,117.64,0,0,1-34.18-5.26L1967.34,361.67q8.94-18.39,9-33.12,0-31.55-32.61-31.55-48.9,0-134.61,56.26-52.17,34.13-79.1,72-28.68,40.44-28.69,85.19,0,36.28,18.93,60.21a73.84,73.84,0,0,0,9.91,10.37A55.1,55.1,0,0,0,1767,594.61q44.7,0,136.73-130.39-18.95,37.33-18.94,65.72t15.27,46.54a48.83,48.83,0,0,0,16.21,13,58.51,58.51,0,0,0,27.91,4.45c20.43-1.68,77.32-54.66,141.81-138.31,19.9-25.79,97.14-125.16,124-142.42,4.29-2.76,15.34-9.85,21.45-5.9,4.23,2.73,4.31,9.59,4.31,12.32q0,25.25-64.68,130.4l-88.84,144.6h64.68c34-58.18,60.52-101.48,74.37-120.41s31.81-38,53.91-57.31q-6.32,22.61-6.32,37.33,0,46.29,40,46.28,34.9,0,74.41-43.3c-.23-3.16-.36-6.33-.37-9.53Q2343.93,494.19,2310,494.18Zm-396.26-53.63q-102.54,146.19-144.6,146.18-28.92,0-28.92-35.22,0-57.84,77.56-152.23t124.88-94.39q25.75,0,25.77,27.86Q1968.4,361.67,1913.71,440.55Z"/><path class="cls-1" d="M2529.62,382.58c0,63.07-50.49,63.07-50.49,63.07s50.49,0,50.49,63.08c0-63.08,51.05-63.08,51.05-63.08S2529.62,445.65,2529.62,382.58Zm1.58-88.34c-81.92,0-148.27,70-148.27,151.92,0,.5,0,1,0,1.51,0,3.2.14,6.37.37,9.53C2389,534,2453,594.61,2531.2,594.61c81.35,0,147.12-66.53,147.12-148.45S2612.55,294.24,2531.2,294.24Zm0,296.91c-59.42,0-107.3-65-107.3-145s47.88-148.46,107.3-148.46c58.85,0,106.74,68.47,106.74,148.46S2590.05,591.15,2531.2,591.15Zm-1.58-208.57c0,63.07-50.49,63.07-50.49,63.07s50.49,0,50.49,63.08c0-63.08,51.05-63.08,51.05-63.08S2529.62,445.65,2529.62,382.58Zm0,0c0,63.07-50.49,63.07-50.49,63.07s50.49,0,50.49,63.08c0-63.08,51.05-63.08,51.05-63.08S2529.62,445.65,2529.62,382.58Z"/><path class="cls-1" d="M1200.5,210.37s-51.06-1.87-20.38-64.94C1149.44,208.5,1099,208.5,1099,208.5s50.47,0,19.8,63.08C1149.44,208.5,1200.5,210.37,1200.5,210.37Z"/><path class="cls-1" d="M1323.55,454.29a177.21,177.21,0,0,1-24.26,40q-15.75,20-31.09,20A20.08,20.08,0,0,1,1257,511.1c-3.28-2.11-7.53-5.9-12.69-11.36q-17-18.17-46.42-35.44T1136,447q-88.51,0-150.52,47.73T908.62,637.9q-9.17,59.1,10.48,95.46t69.64,69.07L1083.48,867q33.49,22.72,48,45.91t8.82,59.53q-9.57,61.83-54.25,93.63t-120.51,31.82q-45.15,0-79.3-30t-49.46-80q-15.26-50-6.38-107.26,3.24-20.9,12-48.19H821.56L704.79,1119.67h20.77a338.2,338.2,0,0,1,27.67-50.46q16.53-25,31-25,5.41,0,11,4.53a106.08,106.08,0,0,1,13.24,13.64q16,19.1,53.1,41.81t92.18,22.73q104.75,0,170.7-52.72t80.07-143.62q6.48-41.79-2.17-70.44a114.21,114.21,0,0,0-29.41-49.1q-20.75-20.43-58.33-45.89l-77.13-50q-38.64-24.54-59.5-50T963.73,597q4.8-30.88,24.45-58.62t54.37-45q34.73-17.25,80.78-17.28,41.52,0,70.5,34.55t39.56,85.44q10.59,50.92,1.13,94.55h20.77l89-236.35Z"/><path class="cls-2" d="M1580.53,938.35a9.93,9.93,0,0,0-3.1-3.09q-2.6,0-5.17,5.16L1563,951.81l-16,22.24a472.18,472.18,0,0,1-45.54,57.59,353.5,353.5,0,0,1-31.22,29.71s-29,24.3-52.51,22c-3-.29-10.54-1-15.35-6.66-4.62-5.41-4.36-12.56-4.26-15.43.55-14.79,23.12-62.06,58.92-123.47L1539.63,803q-23.79,3.63-36.7,3.62-10.86,0-26.87-3.62l-50.64,85.75Q1310.16,1083.47,1258,1083.47q-19.65,0-19.64-23.25,0-23.74,18.61-54.76l123-202.48q-25.34,3.63-35.14,3.62T1317.4,803l-94.05,158.07q-23.25,38.73-23.26,68.7,0,25.83,15.51,43.64t38.24,17.83q21.71,0,46-23.25,22.22-20.65,69.77-81.62l10.34-13.94q-20.14,36.15-20.16,56.3,0,25.85,15.79,44.17t38.54,18.34c23.79,0,49.26-3.44,89.6-50.4.6-.69,1.19-1.39,1.8-2.11,25-29.63,44.85-51.51,58-67.41q7.77-13.51,17.87-28.11A6.88,6.88,0,0,0,1580.53,938.35Z"/><path class="cls-2" d="M1970.16,652.41c-34.41,44.86-102.64,66.74-183.13,105-4.14,2.07-6.19,3.63-6.19,4.66a4.15,4.15,0,0,0,3.1,1q8.77,0,68.73-25.88c52-21.75,133.27-34.24,163.71-65.45ZM1902,914.3q-2.58,0-5.69,5.17-22.61,33.3-44.89,61.53-24.08,30.53-47.74,55.13-45.56,47.32-66.25,47.34-20.19,0-20.17-24.28,0-25.31,47.53-104.86l86.63-137.05,8.3-13.12c-14.81,2.41-30.32,2.44-39.63,2.44-7.93,0-16.41-5.91-26.74-8.32l-27,54.8q4.13-14.46,4.14-23.23,0-31-32-31-37.73,0-99.22,34.09-140.06,76.44-140,175.63a116.2,116.2,0,0,0,2.19,23.07,94.07,94.07,0,0,0,2.35,9.18,82.15,82.15,0,0,0,14.06,26.89q18.62,23.51,46,23.51,25.83,0,53.23-25.32t79.07-97.63q-16.55,32.57-16.53,60.44,0,26.88,15,44.68t38.81,17.83q35.16,0,96.24-73.47,11.85-14,21.84-26.15,53.68-65,53.69-74.2Q1905.11,914.3,1902,914.3Zm-211.11,50.88q-87.84,118.27-123.5,118.29-30,0-30-33.58,0-33.27,26-78.59,7.77-13.51,17.87-28.11,14.31-20.73,33.34-43.61,77.25-93,124.8-93,23.25,0,23.25,25.31Q1762.72,868.08,1690.89,965.18Z"/><path class="cls-3" d="M2032.84,807.15q-13.21-13.2-34.91-13.2-49.56,0-74.88,68.34h-1.45V794q-23.86,4.71-69.45,4.7l-58.8-.37-.54,18.81h58.61v247.33h-58.61v18.45h188.85v-18.45H1921.6v-111q0-66.18,18.45-98.35t30.39-32.19q7.61,0,7.6,8.32l-1.45,15.55q0,31.1,31.12,31.1,17,0,27.67-10.67t10.66-28A43.6,43.6,0,0,0,2032.84,807.15Z"/><path class="cls-2" d="M2562,838q49.13-28.23,49.13-45.83,0-7.23-8.55-7.22l-3.23,3.23c-7.84,0-12.63,1.93-20.82,12.26l-17.64,21.89-6.41,8.53a36.82,36.82,0,0,1-16.56,4.26q-15,0-33.68-11.73-54.52-35.24-71.07-35.24-41.19,0-101,63.66c-26.27,28-52.45,62.41-54.27,64.85-79,106.26-148.94,165.83-203.43,165.83q-48.11,0-48.11-44.43,0-35.64,35.15-88.84,113.68-22.73,162.27-48.82t48.58-63.28q0-16-13.18-27.11t-31.79-11.11q-42.9,0-111.11,37.19-129.7,70.79-129.71,163.74,0,39.26,24.56,65.35t60.78,26.09q76.56,0,183.63-132.05l25.45-34.3c3.44-4.56,8.66-11.36,15.27-19.39,38.9-47.23,67.16-81.52,97.54-78.94,4.78.4,20.17,2.7,41.66,20.82q27.21,23,44.85,22.95,24.55,0,54.46-20.81L2546,842q-78.51,63-227.5,175.61-98.79,30.42-98.79,64.59,0,12.27,13.61,12.27,14.37,0,64.43-47l19.7-18.68,7.46-6.4a120.93,120.93,0,0,1,18.69-1.08q42.72,0,42.72,40,0,20.28-9.07,44.84a714.78,714.78,0,0,1-67.82,34.16q-185.3,81.12-229.63,114.76-85.44,64.58-85.45,123.3,0,50.7,62.49,50.7,80.64,0,216.8-89.67,61.95-41.1,104.13-108.61T2420,1104.1v-13.88q58.11-40.5,117.82-107.12,58.13-64.5,58.13-75.16c-.36-1.42-1.06-2.14-2.14-2.14q-3.72,0-10.12,9.6-26.67,40-80.52,94.32t-84.25,71.42q-5.87-29.88-25.63-49.1t-45.38-17.61l-15.49,1.06q27.76-21.32,44.86-33.58Q2507.52,883.83,2562,838Zm-408.78,5.58q44.7-38,72.09-38,18.11,0,18.1,16.54,0,31-51.69,65.86t-126.1,54Q2108.52,881.5,2153.22,843.53Zm78.49,482.88q-99.57,95.82-175.95,95.82-54.48,0-54.47-41.64,0-42.71,58.73-94.21t161.82-99q138.84-65.14,152.18-72.06Q2331.32,1230.6,2231.71,1326.41Z"/></svg>